<?xml version="1.0" encoding="UTF-8" standalone="no"?>
<!-- Created with Inkscape (http://www.inkscape.org/) -->

<svg
   width="210mm"
   height="297mm"
   viewBox="0 0 210 297"
   version="1.1"
   id="svg5"
   inkscape:version="1.1.2 (b8e25be833, 2022-02-05)"
   sodipodi:docname="SignPrinting.svg"
   xmlns:inkscape="http://www.inkscape.org/namespaces/inkscape"
   xmlns:sodipodi="http://sodipodi.sourceforge.net/DTD/sodipodi-0.dtd"
   xmlns="http://www.w3.org/2000/svg"
   xmlns:svg="http://www.w3.org/2000/svg">
  <sodipodi:namedview
     id="namedview7"
     pagecolor="#ffffff"
     bordercolor="#666666"
     borderopacity="1.0"
     inkscape:pageshadow="2"
     inkscape:pageopacity="0.0"
     inkscape:pagecheckerboard="0"
     inkscape:document-units="mm"
     showgrid="false"
     inkscape:zoom="1.3736953"
     inkscape:cx="348.33053"
     inkscape:cy="270.43843"
     inkscape:window-width="1920"
     inkscape:window-height="1111"
     inkscape:window-x="-9"
     inkscape:window-y="-9"
     inkscape:window-maximized="1"
     inkscape:current-layer="layer1" />
  <defs
     id="defs2">
    <style
       id="style2">.cls-1{fill:red;}</style>
  </defs>
  <g
     inkscape:label="Layer 1"
     inkscape:groupmode="layer"
     id="layer1">
    <g
       id="g848"
       transform="matrix(0.31695361,0,0,0.31695361,79.495214,8.0133333)">
      <path
         id="polygon8"
         d="M 0,21.6 H 11.43 V 9.8 H 38.34 V 0 H 0 Z"
         style="fill:#ff0000" />
      <path
         id="polygon10"
         d="M 0,53 H 38.34 V 43.2 H 11.43 V 31.4 H 0 Z"
         style="fill:#ff0000" />
      <path
         id="rect12"
         d="m 11.43,21.6 h 24.610001 v 9.800001 H 11.43 Z"
         style="fill:#ff0000" />
      <path
         style="fill:#ff0000"
         id="path14"
         d="M 86,4.87 A 16.12,16.12 0 0 0 80.32,1.34 23.76,23.76 0 0 0 71.82,0 H 48.14 V 53 H 59.57 V 31.4 h 12.25 a 23.76,23.76 0 0 0 8.46,-1.34 16.12,16.12 0 0 0 5.72,-3.53 13.43,13.43 0 0 0 3.19,-5 17.38,17.38 0 0 0 0,-11.62 A 13.52,13.52 0 0 0 86,4.87 Z m -8,13.86 a 5.7,5.7 0 0 1 -2.26,1.8 11.33,11.33 0 0 1 -3.27,0.85 32,32 0 0 1 -3.86,0.22 H 59.57 V 9.8 h 9.05 a 32,32 0 0 1 3.86,0.22 11,11 0 0 1 3.27,0.86 5.59,5.59 0 0 1 2.25,1.79 5,5 0 0 1 0.86,3 5,5 0 0 1 -0.86,3.06 z"
         class="cls-1" />
      <path
         id="polygon16"
         d="M 155.47,43.2 V 0 h -11.43 v 53 h 38.34 v -9.8 z"
         style="fill:#ff0000" />
      <path
         id="polygon18"
         d="m 97.42,21.6 h 11.43 V 9.8 h 26.91 V 0 H 97.42 Z"
         style="fill:#ff0000" />
      <path
         id="rect20"
         d="M 97.419998,31.4 H 108.85 V 53 H 97.419998 Z"
         style="fill:#ff0000" />
      <path
         id="rect22"
         d="m 108.85,21.6 h 24.61 v 9.800001 h -24.61 z"
         style="fill:#ff0000" />
    </g>
    <rect
       style="fill:none;stroke:#000000;stroke-width:0.0976831;stroke-miterlimit:4;stroke-dasharray:none"
       id="rect872"
       width="49.902317"
       height="19.902317"
       x="39.81826"
       y="40.973629" />
    <rect
       style="fill:none;stroke:#000000;stroke-width:0.0976831;stroke-miterlimit:4;stroke-dasharray:none"
       id="rect872-2"
       width="49.902317"
       height="19.902317"
       x="103.78088"
       y="40.973629" />
    <text
       xml:space="preserve"
       style="font-style:normal;font-weight:normal;font-size:11.9063px;line-height:1.25;font-family:sans-serif;fill:#000000;fill-opacity:1;stroke:none;stroke-width:0.297658"
       x="47.197742"
       y="55.253029"
       id="text1594"><tspan
         sodipodi:role="line"
         id="tspan1592"
         style="font-weight:bold;stroke-width:0.297658"
         x="47.197742"
         y="55.253029">REAL</tspan></text>
    <text
       xml:space="preserve"
       style="font-style:normal;font-weight:normal;font-size:11.9063px;line-height:1.25;font-family:sans-serif;fill:#000000;fill-opacity:1;stroke:none;stroke-width:0.297658"
       x="111.41326"
       y="55.253029"
       id="text1594-9"><tspan
         sodipodi:role="line"
         id="tspan1592-4"
         style="font-weight:bold;stroke-width:0.297658"
         x="111.41326"
         y="55.253029">FAKE</tspan></text>
  </g>
</svg>
